<svg xmlns="http://www.w3.org/2000/svg" version="1.1" xmlns:xlink="http://www.w3.org/1999/xlink" xmlns:svgjs="http://svgjs.dev/svgjs" width="160" height="152"><svg width="160" height="152" viewBox="0 0 160 152" fill="none" xmlns="http://www.w3.org/2000/svg">
<path d="M47.1891 0L79.8773 56.3278V18.7759L47.1891 0Z" fill="#F48120"></path>
<path d="M112.565 0L79.8772 56.3278V18.7759L112.565 0Z" fill="#C64A1B"></path>
<path d="M47.1891 0H112.565L79.8773 18.7759L47.1891 0Z" fill="#F9A64A"></path>
<path d="M139.846 19.5074L95.8525 67.7884L131.982 56.3278L139.846 19.5074Z" fill="#F9A64A"></path>
<path d="M160 81.4435L95.8525 67.7883L131.982 56.3276L160 81.4435Z" fill="#C64A1B"></path>
<path d="M139.846 19.5074L160 81.4436L131.982 56.3278L139.846 19.5074Z" fill="#F48120"></path>
<path d="M149.677 112.899L89.9539 86.5642L112.074 116.801L149.677 112.899Z" fill="#F48120"></path>
<path d="M96.5898 151.183L89.9539 86.5642L112.074 116.801L96.5898 151.183Z" fill="#F9A64A"></path>
<path d="M149.677 112.899L96.5899 151.182L112.074 116.801L149.677 112.899Z" fill="#C64A1B"></path>
<path d="M20.1536 19.5074L63.9017 67.7884L28.0184 56.3278L20.1536 19.5074Z" fill="#F48120"></path>
<path d="M0 81.4435L63.9017 67.7883L28.0184 56.3276L0 81.4435Z" fill="#C64A1B"></path>
<path d="M20.1536 19.5074L0 81.4436L28.0184 56.3278L20.1536 19.5074Z" fill="#F9A64A"></path>
<path d="M10.3226 112.899L70.0461 86.5642L47.9263 116.801L10.3226 112.899Z" fill="#F9A64A"></path>
<path d="M63.1644 151.183L70.0461 86.5642L47.9263 116.801L63.1644 151.183Z" fill="#C64A1B"></path>
<path d="M10.3226 112.899L63.1644 151.182L47.9263 116.801L10.3226 112.899Z" fill="#F48120"></path>
</svg><style>@media (prefers-color-scheme: light) { :root { filter: none; } }
@media (prefers-color-scheme: dark) { :root { filter: none; } }
</style></svg>